# xmcd
#
# Track frame offsets: 
#        150
#        20417
#        46160
#        66410
#
# Disc length: 1226 seconds
#
# Revision: 3
# Processed by: cddbd v1.5.2PL0 Copyright (c) Steve Scherf et al.
# Submitted via: ExactAudioCopyFreeDBPlugin 1.0
#
DISCID=2e04c804
DTITLE=秋山雅史 - あすという日が
DYEAR=2011
DGENRE=Pop
TTITLE0=あすという日が
TTITLE1=翼をください
TTITLE2=あすという日が （カラオケ）
TTITLE3=翼をください(カラオケ）
EXTD=YEAR: 2011
EXTT0=
EXTT1=
EXTT2=
EXTT3=
PLAYORDER=
